# xmcd CD database file generated by MAGIX_Freedb v0.9beta0
# 
# Track frame offsets:
#      150
#      15414
#      27835
#      49451
#      59606
#      68350
#      83231
#      95668
#      105881
#      118786
#      135909
#      153074
#      172015
#      188662
#      205726
#      210020
#      234110
#      246797
#      260310
#      270066
#      281815
# 
# Disc length: 3938 seconds
# 
# Revision: 0 
# Processed by: cddbd v1.5.1PL0 Copyright (c) Steve Scherf et al.
# Submitted via: MAGIX_Freedb v0.9beta0
# 
DISCID=050f6015
DTITLE=Varios - Todo El Flamenco ...De Los Tangos Al Zorongo
DYEAR=1998
DGENRE=
TTITLE0=Camarón - Al Padre Santo De Roma
TTITLE1=Paquera De Jerez - Te Tengo Que Ver Llorar
TTITLE2=Antonio Mairena - En Santa Ana
TTITLE3=Chato De La Isla - El Día Que Yo Te Vea
TTITLE4=Porrina De Badajoz - Dejarme Flores, Dejarme
TTITLE5=Gabriel Moreno - El Pañuelo Quien Lo Trae
TTITLE6=Turronero - Quien Tiene Razón La Pierde
TTITLE7=Camarón - No Naqueres Mas
TTITLE8=El Chaleco - Los Anticuarios
TTITLE9=Paco De Lucía - Casilda
TTITLE10=Camarón - En La Boca De Una Mina
TTITLE11=Sabicas - Ecos De Linares
TTITLE12=Fosforito - No Tengo Na Que Envidiarte
TTITLE13=Jacinto Almadén - Hablo Con Mi Dios Y Le Digo
TTITLE14=Rafael Romero - Yo No Te Obligo, Gitana
TTITLE15=Antonio Mairena - Desde El Callejón
TTITLE16=Fosforito - A Mi Málaga La Bella
TTITLE17=Paquera De Jerez - Huyendo Del Rey Herodes
TTITLE18=Manolo Caracol - Morita Mora
TTITLE19=Sabicas - Zapateado Danza
TTITLE20=Paco De Lucía Y Ricardo Modrego - Zorongo Gitano
EXTD=
EXTT0=Tangos De Cádiz
EXTT1=Tangos De Jerez
EXTT2=Tangos De Triana
EXTT3=Tangos Del Piyayo De Málaga
EXTT4=Tangos Extremeños
EXTT5=Tangos De Jaén
EXTT6=Tangos De Pastora
EXTT7=Tangos Del Titi
EXTT8=Tanguillos Comparseros
EXTT9=Tanguillos (Guitarra)
EXTT10=Taranta
EXTT11=Taranta (Guitarra)
EXTT12=Taranto De Almería
EXTT13=Tientos
EXTT14=Toná Chica
EXTT15=Toná-Romance
EXTT16=Verdiales
EXTT17=Villancico
EXTT18=Zambra
EXTT19=Zapateado
EXTT20=Zorongo
PLAYORDER=
